<svg xmlns="http://www.w3.org/2000/svg" xmlns:xlink="http://www.w3.org/1999/xlink" width="1108" height="250.378" viewBox="0 0 1108 250.378">
  <defs>
    <clipPath id="clip-path">
      <rect id="Rectangle_903" data-name="Rectangle 903" width="1108" height="250" rx="23" transform="translate(-5199 -4895)" fill="#fb5012"/>
    </clipPath>
    <clipPath id="clip-path-2">
      <rect id="Rectangle_1540" data-name="Rectangle 1540" width="1108" height="504" transform="translate(0)" fill="#800020"/>
    </clipPath>
  </defs>
  <g id="Group_12724" data-name="Group 12724" transform="translate(5153 5741.378)">
    <rect id="Rectangle_1541" data-name="Rectangle 1541" width="1108" height="250" rx="23" transform="translate(-5153 -5741.378)" fill="#fb5012"/>
    <g id="Mask_Group_128" data-name="Mask Group 128" transform="translate(46 -846)" opacity="0.66" clip-path="url(#clip-path)">
      <g id="Group_12723" data-name="Group 12723" transform="translate(-6213.198 -5213.678)" opacity="0.19">
        <g id="Group_12722" data-name="Group 12722" transform="translate(1014.198 66.678)" clip-path="url(#clip-path-2)">
          <g id="Group_12721" data-name="Group 12721" transform="translate(-428.372 -685.56)">
            <g id="Group_8800" data-name="Group 8800" opacity="0.15" style="mix-blend-mode: overlay;isolation: isolate">
              <path id="Path_8800" data-name="Path 8800" d="M2786.835-1085.358,2568.105-908.477c-13.939,11.326-13.949,29.63-.023,40.967,14.02,11.261,36.655,11.254,50.664-.017l218.73-176.881c13.939-11.327,13.95-29.631.023-40.968C2823.478-1096.636,2800.843-1096.629,2786.835-1085.358Zm16.028-176.1L2139.69-725.174c-14.009,11.271-36.643,11.279-50.664.017h0c-12.831-10.451-13.969-27.01-2.649-38.546l279.7-226.18c13.939-11.327,13.949-29.631.023-40.968-14.018-11.261-36.651-11.254-50.658.017l-496,401.093c-13.984,11.309-13.984,29.643,0,40.951s36.657,11.308,50.641,0l25.193-20.375c14.265-9.156,34.744-8.236,47.668,2.14h0c13.926,11.337,13.916,29.641-.023,40.967l-202.55,163.8c-13.984,11.308-13.984,29.642,0,40.95s36.656,11.308,50.64,0l154.542-124.973c14.242-7.964,33.481-6.586,45.77,3.28h0c13.927,11.337,13.916,29.641-.023,40.967l-360.009,291.13c-14,11.293-14.029,29.626-.064,40.948s36.636,11.345,50.637.052l.066-.053,865.287-699.723c13.935-11.329,13.943-29.631.017-40.967-14.018-11.261-36.651-11.254-50.658.017L2353.808-735.18c-14.009,11.27-36.643,11.278-50.664.017h0c-12.2-9.938-13.9-25.5-4.052-37.012L2853.5-1220.506c13.934-11.33,13.942-29.633.017-40.97-14.018-11.262-36.653-11.253-50.658.019ZM1755.03-495.751l46.443-37.557c13.984-11.308,13.984-29.642,0-40.95s-36.656-11.308-50.639,0L1704.391-536.7c-13.984,11.308-13.984,29.642,0,40.95S1741.046-484.443,1755.03-495.751Z" transform="translate(-842.305 1331.64)" fill="#800020"/>
              <path id="Path_8800_-_Outline" data-name="Path 8800 - Outline" d="M2828.2-1271.917a45.307,45.307,0,0,1,14.086,2.209,39.281,39.281,0,0,1,12.484,6.673l.01.008a31.212,31.212,0,0,1,8.358,10.248,26.181,26.181,0,0,1,2.818,11.789,26.187,26.187,0,0,1-2.827,11.79,31.221,31.221,0,0,1-8.367,10.246l0,0L2300.5-770.738a24.791,24.791,0,0,0-4.669,8.211,21.72,21.72,0,0,0-1.03,8.816,22.675,22.675,0,0,0,2.814,9.011,27.642,27.642,0,0,0,6.787,7.978,35.321,35.321,0,0,0,11.221,5.988,41.33,41.33,0,0,0,12.846,2.011,41.329,41.329,0,0,0,12.86-2.016,35.308,35.308,0,0,0,11.229-6h0l142.764-115.451a39.277,39.277,0,0,1,12.5-6.689,45.306,45.306,0,0,1,14.1-2.213A45.313,45.313,0,0,1,2536-858.883a39.291,39.291,0,0,1,12.485,6.673l.01.008a31.206,31.206,0,0,1,8.358,10.248,26.179,26.179,0,0,1,2.818,11.788,26.186,26.186,0,0,1-2.827,11.789,31.221,31.221,0,0,1-8.367,10.245l0,0L1683.122-108.351a39.134,39.134,0,0,1-12.468,6.687,45.161,45.161,0,0,1-14.075,2.213,45.152,45.152,0,0,1-14.119-2.227,39.093,39.093,0,0,1-12.492-6.726,31.127,31.127,0,0,1-8.378-10.242,26.1,26.1,0,0,1-2.818-11.791,26.108,26.108,0,0,1,2.85-11.793,31.173,31.173,0,0,1,8.413-10.232l360.007-291.128c6.263-5.089,9.716-11.813,9.719-18.929s-3.442-13.838-9.7-18.932a35.341,35.341,0,0,0-11.172-5.961,41.354,41.354,0,0,0-12.9-2.03,39.937,39.937,0,0,0-19.31,4.824L1792.27-359.756a39.114,39.114,0,0,1-12.48,6.706,45.162,45.162,0,0,1-14.1,2.22,45.163,45.163,0,0,1-14.1-2.22,39.116,39.116,0,0,1-12.48-6.706,31.155,31.155,0,0,1-8.4-10.238,26.1,26.1,0,0,1-2.834-11.793,26.1,26.1,0,0,1,2.834-11.793,31.15,31.15,0,0,1,8.4-10.237l202.55-163.8c6.263-5.089,9.716-11.812,9.719-18.929s-3.44-13.834-9.7-18.928a35.328,35.328,0,0,0-11.194-5.972,41.357,41.357,0,0,0-12.882-2.023,41.625,41.625,0,0,0-11.118,1.495,37.071,37.071,0,0,0-10.047,4.43l-25.106,20.3a39.116,39.116,0,0,1-12.48,6.707,45.16,45.16,0,0,1-14.1,2.22,45.16,45.16,0,0,1-14.1-2.22,39.117,39.117,0,0,1-12.48-6.706,31.153,31.153,0,0,1-8.4-10.237,26.1,26.1,0,0,1-2.834-11.793,26.1,26.1,0,0,1,2.834-11.793,31.15,31.15,0,0,1,8.4-10.238l496-401.093a39.274,39.274,0,0,1,12.5-6.69,45.308,45.308,0,0,1,14.1-2.214,45.311,45.311,0,0,1,14.086,2.209,39.294,39.294,0,0,1,12.484,6.673l.01.008a31.209,31.209,0,0,1,8.358,10.248,26.182,26.182,0,0,1,2.817,11.789,26.186,26.186,0,0,1-2.829,11.79,31.222,31.222,0,0,1-8.371,10.244L2087.726-762.221a25.65,25.65,0,0,0-5.6,8.521,21.868,21.868,0,0,0-1.508,9.261c.371,6.66,3.8,12.958,9.667,17.732a35.316,35.316,0,0,0,11.211,5.98,41.324,41.324,0,0,0,12.846,2.011,41.325,41.325,0,0,0,12.86-2.016,35.3,35.3,0,0,0,11.229-6h0l662.426-535.68v0l.746-.6a39.27,39.27,0,0,1,12.493-6.688A45.3,45.3,0,0,1,2828.2-1271.917Zm24.055,11.992a35.3,35.3,0,0,0-11.21-5.981,41.316,41.316,0,0,0-12.844-2.011,41.317,41.317,0,0,0-12.859,2.016,35.312,35.312,0,0,0-11.166,5.952l-.058.047L2140.944-723.615a39.286,39.286,0,0,1-12.494,6.686,45.317,45.317,0,0,1-14.1,2.214,45.32,45.32,0,0,1-14.088-2.209,39.3,39.3,0,0,1-12.486-6.673l-.011-.008c-6.745-5.494-10.7-12.814-11.134-20.611-.422-7.571,2.533-14.988,8.321-20.886l.081-.082.089-.072,279.7-226.18c6.263-5.089,9.715-11.813,9.719-18.929s-3.439-13.831-9.691-18.925h0a35.3,35.3,0,0,0-11.22-5.989,41.315,41.315,0,0,0-12.845-2.012,41.317,41.317,0,0,0-12.858,2.016,35.3,35.3,0,0,0-11.228,6L1820.7-628.185c-6.284,5.082-9.745,11.8-9.745,18.921s3.461,13.838,9.746,18.92a35.138,35.138,0,0,0,11.211,6.015,41.169,41.169,0,0,0,12.851,2.021,41.167,41.167,0,0,0,12.852-2.021,35.133,35.133,0,0,0,11.211-6.016l25.278-20.444.092-.059a41.042,41.042,0,0,1,11.229-4.976,45.623,45.623,0,0,1,12.186-1.64,45.351,45.351,0,0,1,14.126,2.221,39.312,39.312,0,0,1,12.459,6.659l.01.008a31.2,31.2,0,0,1,8.358,10.248,26.176,26.176,0,0,1,2.817,11.789,26.18,26.18,0,0,1-2.829,11.79,31.221,31.221,0,0,1-8.371,10.244l-202.553,163.8c-6.284,5.082-9.745,11.8-9.745,18.92s3.461,13.838,9.745,18.92a35.135,35.135,0,0,0,11.211,6.015,41.171,41.171,0,0,0,12.851,2.021,41.17,41.17,0,0,0,12.851-2.021,35.135,35.135,0,0,0,11.211-6.015l154.675-125.08.149-.083a43.9,43.9,0,0,1,21.409-5.415,45.346,45.346,0,0,1,14.147,2.229,39.311,39.311,0,0,1,12.441,6.652l.011.008a31.2,31.2,0,0,1,8.358,10.247,26.172,26.172,0,0,1,2.817,11.789,26.181,26.181,0,0,1-2.829,11.79,31.222,31.222,0,0,1-8.371,10.244L1632.549-149.352c-6.3,5.079-9.768,11.8-9.777,18.918s3.441,13.835,9.715,18.921a35.11,35.11,0,0,0,11.221,6.033,41.163,41.163,0,0,0,12.87,2.027,41.169,41.169,0,0,0,12.831-2.014,35.149,35.149,0,0,0,11.2-6l.064-.052L2545.96-811.239l0,0c6.264-5.093,9.716-11.816,9.718-18.932s-3.44-13.83-9.691-18.924h0a35.312,35.312,0,0,0-11.221-5.989,41.32,41.32,0,0,0-12.845-2.012,41.319,41.319,0,0,0-12.858,2.015,35.3,35.3,0,0,0-11.228,6L2355.062-733.622a39.29,39.29,0,0,1-12.494,6.686,45.323,45.323,0,0,1-14.1,2.214,45.317,45.317,0,0,1-14.087-2.209,39.3,39.3,0,0,1-12.486-6.673l-.011-.009c-6.466-5.267-10.4-12.278-11.068-19.74a25.7,25.7,0,0,1,1.216-10.43,28.822,28.822,0,0,1,5.544-9.693l.119-.14.143-.115,554.411-448.331c6.261-5.093,9.711-11.816,9.713-18.93S2858.516-1254.829,2852.259-1259.925Zm-40.083,164.109h0a45.334,45.334,0,0,1,14.088,2.209,39.3,39.3,0,0,1,12.486,6.672l.01.008a31.206,31.206,0,0,1,8.358,10.248,26.18,26.18,0,0,1,2.817,11.789,26.184,26.184,0,0,1-2.829,11.79,31.222,31.222,0,0,1-8.371,10.244L2620-865.968a39.284,39.284,0,0,1-12.494,6.686,45.319,45.319,0,0,1-14.1,2.213,45.32,45.32,0,0,1-14.088-2.209,39.294,39.294,0,0,1-12.486-6.673l-.01-.008a31.2,31.2,0,0,1-8.358-10.248A26.179,26.179,0,0,1,2555.644-888a26.185,26.185,0,0,1,2.829-11.79,31.219,31.219,0,0,1,8.371-10.244l218.733-176.884a39.287,39.287,0,0,1,12.5-6.69A45.312,45.312,0,0,1,2812.176-1095.816Zm24.071,12a35.315,35.315,0,0,0-11.222-5.989,41.34,41.34,0,0,0-12.847-2.012h0a41.316,41.316,0,0,0-12.858,2.016,35.3,35.3,0,0,0-11.229,6L2569.363-906.921c-6.263,5.089-9.716,11.812-9.719,18.928s3.442,13.837,9.7,18.932a35.319,35.319,0,0,0,11.212,5.981,41.33,41.33,0,0,0,12.847,2.011,41.325,41.325,0,0,0,12.86-2.015,35.3,35.3,0,0,0,11.229-6h0l218.726-176.878c6.263-5.089,9.716-11.812,9.719-18.929s-3.438-13.831-9.69-18.925ZM1776.153-584.739a45.163,45.163,0,0,1,14.1,2.22,39.113,39.113,0,0,1,12.479,6.706,31.151,31.151,0,0,1,8.4,10.237,26.1,26.1,0,0,1,2.834,11.793,26.1,26.1,0,0,1-2.834,11.793,31.153,31.153,0,0,1-8.4,10.238L1756.288-494.2a39.117,39.117,0,0,1-12.48,6.706,45.163,45.163,0,0,1-14.1,2.22,45.162,45.162,0,0,1-14.1-2.22,39.114,39.114,0,0,1-12.479-6.706,31.155,31.155,0,0,1-8.4-10.238,26.106,26.106,0,0,1-2.834-11.793,26.106,26.106,0,0,1,2.834-11.793,31.155,31.155,0,0,1,8.4-10.238l46.443-37.557a39.113,39.113,0,0,1,12.479-6.706A45.163,45.163,0,0,1,1776.153-584.739ZM1729.71-489.27a41.17,41.17,0,0,0,12.851-2.021,35.133,35.133,0,0,0,11.211-6.016l46.443-37.557c6.284-5.082,9.745-11.8,9.745-18.92s-3.461-13.838-9.745-18.92A35.128,35.128,0,0,0,1789-578.719a41.167,41.167,0,0,0-12.851-2.021,41.167,41.167,0,0,0-12.851,2.021,35.131,35.131,0,0,0-11.211,6.015l-46.443,37.557c-6.284,5.082-9.745,11.8-9.745,18.92s3.461,13.838,9.745,18.92a35.131,35.131,0,0,0,11.211,6.015A41.167,41.167,0,0,0,1729.71-489.27Z" transform="translate(-842.305 1331.64)" fill="#707070"/>
            </g>
            <path id="Path_8801" data-name="Path 8801" d="M2301.544,506.514l-496,401.094c-13.937,11.327-13.948,29.629-.021,40.965h0c14.019,11.262,36.654,11.253,50.661-.019l285.037-230.5c14.265-9.155,34.744-8.236,47.668,2.141h0c13.926,11.337,13.916,29.641-.023,40.967l-462.392,373.922c-13.937,11.327-13.947,29.629-.021,40.965h0c14.019,11.261,36.651,11.254,50.66-.014l150.058-121.351c13.984-11.31,36.658-11.311,50.644,0s13.987,29.644,0,40.954l-33.476,27.066c-13.939,11.328-13.949,29.632-.023,40.97h0c14.021,11.262,36.656,11.254,50.664-.019l538.74-435.663c13.939-11.327,13.949-29.631.023-40.967h0c-14.018-11.261-36.651-11.254-50.658.017L2178.618,933.26c-13.986,11.308-36.659,11.307-50.644,0s-13.983-29.646,0-40.954h0l244.708-197.882c13.937-11.328,13.946-29.632.017-40.968h0c-14.018-11.261-36.651-11.254-50.658.017l-47.657,38.54c-14.009,11.271-36.644,11.278-50.664.017h0c-12.832-10.451-13.968-27.012-2.644-38.546l131.1-106.018c13.939-11.327,13.949-29.631.023-40.968h0C2338.184,495.235,2315.551,495.243,2301.544,506.514Z" transform="translate(-882.577 388.843)" fill="#800020"/>
            <path id="Path_8801_-_Outline" data-name="Path 8801 - Outline" d="M2326.883,492.056h0a46.42,46.42,0,0,1,29.076,9.764c8.192,6.669,12.684,15.6,12.68,25.165s-4.506,18.5-12.677,25.136l-131.11,106.027a19.417,19.417,0,0,0-5.538,14.375c.307,5.523,3.219,10.8,8.2,14.853a36.222,36.222,0,0,0,43.114-.04l47.645-38.53a48.173,48.173,0,0,1,58.188-.029c8.193,6.667,12.687,15.6,12.684,25.163s-4.5,18.5-12.674,25.138L2131.751,896.969c-5.328,4.308-8.263,9.923-8.263,15.811s2.933,11.5,8.26,15.812a36.06,36.06,0,0,0,43.1,0l304.473-246.218a48.173,48.173,0,0,1,58.188-.029c8.192,6.668,12.685,15.6,12.681,25.164s-4.506,18.5-12.677,25.137L1998.76,1168.32a48.18,48.18,0,0,1-58.194.031c-8.193-6.67-12.685-15.6-12.681-25.167s4.507-18.5,12.677-25.137l33.488-27.075c5.326-4.308,8.26-9.923,8.259-15.811s-2.935-11.5-8.262-15.811a36.058,36.058,0,0,0-43.1,0L1780.89,1180.7a48.181,48.181,0,0,1-58.191.026c-8.192-6.669-12.685-15.6-12.681-25.164s4.505-18.5,12.675-25.135L2185.1,756.5c5.3-4.309,8.231-9.931,8.234-15.82s-2.919-11.508-8.226-15.829a34.414,34.414,0,0,0-21.545-7.093,35.7,35.7,0,0,0-19.094,5.348L1859.96,953.22a48.175,48.175,0,0,1-58.191.031c-8.192-6.668-12.684-15.6-12.681-25.163s4.506-18.5,12.676-25.136l496.007-401.1A46.415,46.415,0,0,1,2326.883,492.056Zm-77.837,214.413a46.426,46.426,0,0,1-29.078-9.763c-7.661-6.239-12.136-14.582-12.633-23.517-.484-8.709,2.877-17.2,9.465-23.91L2348.406,542.8c5.3-4.309,8.231-9.931,8.234-15.82s-2.919-11.509-8.226-15.829a36.212,36.212,0,0,0-43.109.039L1809.321,912.273c-5.3,4.309-8.23,9.93-8.232,15.819s2.919,11.507,8.226,15.827a36.214,36.214,0,0,0,43.111-.04l285.026-230.49a47.364,47.364,0,0,1,26.107-7.634,46.452,46.452,0,0,1,29.09,9.761c8.193,6.67,12.686,15.6,12.682,25.166s-4.507,18.5-12.677,25.137l-462.4,373.931c-5.3,4.309-8.229,9.93-8.232,15.818s2.919,11.508,8.226,15.828a36.22,36.22,0,0,0,43.112-.036L1923.4,1050.02a48.024,48.024,0,0,1,58.189,0c8.2,6.631,12.717,15.559,12.718,25.142s-4.515,18.511-12.714,25.143l-33.477,27.067c-5.3,4.309-8.231,9.931-8.233,15.821s2.919,11.51,8.226,15.831a36.219,36.219,0,0,0,43.115-.04l538.729-435.654c5.3-4.309,8.231-9.931,8.234-15.82s-2.919-11.508-8.226-15.828a36.213,36.213,0,0,0-43.109.038L2182.391,937.925a48.026,48.026,0,0,1-58.189,0c-8.2-6.632-12.715-15.561-12.714-25.143s4.517-18.511,12.718-25.141l244.708-197.882c5.3-4.309,8.229-9.931,8.231-15.82s-2.92-11.508-8.229-15.828a36.212,36.212,0,0,0-43.109.038l-47.645,38.531A46.425,46.425,0,0,1,2249.045,706.469Z" transform="translate(-882.577 388.843)" fill="#707070"/>
            <path id="Shape_15_copy_4" data-name="Shape 15 copy 4" d="M514.649,1050.542l495.993-401.091c13.938-11.328,13.947-29.631.021-40.968h0c-14.02-11.261-36.653-11.253-50.66.017L674.964,839c-14.263,9.158-34.743,8.239-47.665-2.138h0c-13.926-11.338-13.917-29.641.021-40.97L999.924,494.579c13.937-11.328,13.947-29.631.021-40.967h0c-14.019-11.261-36.653-11.254-50.66.017L889.012,502.37c-13.927,11.355-36.6,11.43-50.64.169s-14.134-29.6-.208-40.951l.207-.167L990.2,338.643c13.937-11.328,13.947-29.631.021-40.968h0c-14.019-11.261-36.653-11.253-50.66.017l-657.1,531.37c-13.937,11.329-13.947,29.632-.021,40.97h0c14.019,11.262,36.654,11.253,50.66-.019L637.573,623.8c14.008-11.268,36.639-11.274,50.657-.014,13.925,11.337,13.917,29.639-.019,40.968L443.505,862.635c-13.937,11.329-13.947,29.632-.021,40.97h0c14.021,11.259,36.653,11.251,50.661-.019L541.8,865.048c14.007-11.273,36.642-11.281,50.661-.019h0c12.831,10.449,13.968,27.009,2.647,38.543l-131.1,106.019c-13.938,11.328-13.948,29.632-.021,40.97h0C478.007,1061.823,500.642,1061.814,514.649,1050.542Z" transform="translate(-272.001 500.2)" fill="#800020"/>
            <path id="Path_8802" data-name="Path 8802" d="M3107.823-1191.2c-12.839-10.453-13.984-27.017-2.667-38.562l119.711-96.806c13.934-11.337,13.932-29.645-.005-40.979h0c-14.017-11.272-36.66-11.272-50.676,0L2761.816-1034.08c-13.933,11.337-13.93,29.645.006,40.979h0c14.017,11.27,36.658,11.27,50.676,0l119.71-96.8c14.274-9.153,34.758-8.225,47.68,2.159,13.937,11.333,13.941,29.639.012,40.977L2328.392-519.915c-13.935,11.336-13.935,29.643,0,40.979h0c14.02,11.27,36.661,11.27,50.681,0l36.541-29.552c14.735-10.682,37.39-9.682,50.6,2.234,11.68,10.536,12.242,26.353,1.329,37.414l-119.711,96.808c-13.933,11.337-13.93,29.645.006,40.979h0c14.017,11.27,36.658,11.27,50.675,0l412.369-333.462c13.933-11.337,13.93-29.645-.006-40.979h0c-14.017-11.27-36.658-11.27-50.675,0l-119.711,96.8c-15.467,9.981-38.012,7.933-50.354-4.575-10.916-11.061-10.353-26.88,1.33-37.416l868.147-702.042c13.934-11.339,13.932-29.648-.006-40.984h0S3121.84-1179.93,3107.823-1191.2ZM2596.232-818.21,2724.543-921.97c13.933-11.338,13.93-29.645-.006-40.979h0c-14.018-11.27-36.658-11.27-50.676,0l-128.31,103.757c-13.932,11.337-13.932,29.642,0,40.979h0C2559.57-806.943,2582.212-806.941,2596.232-818.21Z" transform="translate(-1137.089 1402.162)" fill="#800020"/>
            <path id="Path_8802_-_Outline" data-name="Path 8802 - Outline" d="M3459.789-1396.783l1.4,1.135a31.727,31.727,0,0,1,8.5,10.414,26.687,26.687,0,0,1,2.878,12.017,26.688,26.688,0,0,1-2.875,12.016,31.725,31.725,0,0,1-8.5,10.416l-.006,0-868.093,702a26.132,26.132,0,0,0-6.081,7.993,21.7,21.7,0,0,0-2.191,8.842,21.387,21.387,0,0,0,1.619,8.775,25.231,25.231,0,0,0,5.476,8.15,32.848,32.848,0,0,0,11.831,7.56,40.945,40.945,0,0,0,14.419,2.6,40.919,40.919,0,0,0,10.956-1.476,36.439,36.439,0,0,0,9.9-4.382l119.611-96.72a39.788,39.788,0,0,1,12.65-6.767,45.823,45.823,0,0,1,14.253-2.237,45.823,45.823,0,0,1,14.253,2.237,39.792,39.792,0,0,1,12.651,6.767l.011.009a31.72,31.72,0,0,1,8.5,10.413A26.685,26.685,0,0,1,2823.829-685a26.682,26.682,0,0,1-2.875,12.015,31.718,31.718,0,0,1-8.5,10.414l-.006,0L2400.079-329.1a39.8,39.8,0,0,1-12.651,6.767,45.83,45.83,0,0,1-14.253,2.237,45.829,45.829,0,0,1-14.253-2.237,39.8,39.8,0,0,1-12.651-6.767l-.011-.009a31.725,31.725,0,0,1-8.5-10.413,26.687,26.687,0,0,1-2.878-12.016,26.683,26.683,0,0,1,2.875-12.015,31.72,31.72,0,0,1,8.5-10.414l.006,0,119.6-96.717a25.188,25.188,0,0,0,5.379-8.052,21.386,21.386,0,0,0,1.618-8.775,21.7,21.7,0,0,0-2.19-8.841,26.152,26.152,0,0,0-6.127-8.036,33.785,33.785,0,0,0-11.472-6.71,40.551,40.551,0,0,0-13.546-2.28,38.425,38.425,0,0,0-22.386,6.887l-36.494,29.514a39.8,39.8,0,0,1-12.652,6.767,45.827,45.827,0,0,1-14.255,2.237,45.827,45.827,0,0,1-14.255-2.237,39.8,39.8,0,0,1-12.652-6.767l-.011-.009a31.718,31.718,0,0,1-8.5-10.414,26.681,26.681,0,0,1-2.876-12.015,26.681,26.681,0,0,1,2.876-12.015,31.719,31.719,0,0,1,8.5-10.414l.006,0,651.508-526.854c6.138-5,9.518-11.584,9.516-18.545s-3.387-13.551-9.533-18.548a34.832,34.832,0,0,0-11.037-5.891,40.861,40.861,0,0,0-12.738-2,41.145,41.145,0,0,0-10.98,1.475,36.6,36.6,0,0,0-9.885,4.349l-119.607,96.721a39.792,39.792,0,0,1-12.651,6.767,45.823,45.823,0,0,1-14.254,2.237,45.821,45.821,0,0,1-14.253-2.237,39.791,39.791,0,0,1-12.651-6.767l-.011-.009a31.725,31.725,0,0,1-8.5-10.413,26.688,26.688,0,0,1-2.877-12.016,26.681,26.681,0,0,1,2.875-12.015,31.715,31.715,0,0,1,8.5-10.414l.006,0,412.375-333.468a39.782,39.782,0,0,1,12.65-6.769,45.816,45.816,0,0,1,14.254-2.237,45.82,45.82,0,0,1,14.254,2.237,39.787,39.787,0,0,1,12.651,6.769l.011.009a31.72,31.72,0,0,1,8.5,10.413,26.683,26.683,0,0,1,2.878,12.016,26.682,26.682,0,0,1-2.875,12.016,31.717,31.717,0,0,1-8.5,10.414l-.006,0-119.6,96.713a25.147,25.147,0,0,0-5.464,8.337,21.388,21.388,0,0,0-1.471,9.054c.362,6.453,3.667,12.565,9.314,17.233a2.558,2.558,0,0,0,.31.016c1.026,0,3.231-.368,7.906-2.12,3.791-1.421,8.673-3.559,14.509-6.355,10.936-5.238,25.568-12.95,43.49-22.92,30.231-16.818,70.228-40.274,118.879-69.716,82.858-50.143,163.153-100.937,163.954-101.445Zm-1.754,42.119h0c6.144-5,9.528-11.589,9.527-18.553,0-6.437-2.893-12.553-8.184-17.39-11.627,7.343-85.958,54.2-162.474,100.508-48.7,29.473-88.753,52.96-119.037,69.807-18.01,10.019-32.733,17.777-43.76,23.06-5.969,2.859-10.987,5.055-14.915,6.527-4.377,1.641-7.537,2.438-9.661,2.438a5.032,5.032,0,0,1-3.275-.982l-.012-.01c-6.86-5.585-10.884-13.035-11.329-20.977-.433-7.715,2.57-15.27,8.455-21.273l.1-.1.112-.091,119.705-96.8c6.144-5,9.528-11.587,9.527-18.551s-3.383-13.546-9.524-18.544a34.816,34.816,0,0,0-11.067-5.91,40.828,40.828,0,0,0-12.7-1.99,40.825,40.825,0,0,0-12.7,1.99,34.81,34.81,0,0,0-11.064,5.908h0l-412.369,333.464c-6.14,5-9.521,11.584-9.52,18.545s3.382,13.544,9.52,18.542h0a34.815,34.815,0,0,0,11.07,5.911,40.834,40.834,0,0,0,12.7,1.99,40.835,40.835,0,0,0,12.7-1.99,34.812,34.812,0,0,0,11.065-5.907l119.817-96.891.116-.074a41.558,41.558,0,0,1,11.363-5.031,46.145,46.145,0,0,1,12.314-1.656,45.858,45.858,0,0,1,14.294,2.249,39.811,39.811,0,0,1,12.624,6.754l.011.009a31.719,31.719,0,0,1,8.5,10.412,26.684,26.684,0,0,1,2.879,12.015,26.675,26.675,0,0,1-2.873,12.015,31.71,31.71,0,0,1-8.493,10.414l-.006.005L2329.964-517.971l.006,0c-6.145,5-9.529,11.587-9.529,18.55s3.384,13.552,9.529,18.55a34.833,34.833,0,0,0,11.06,5.9,40.842,40.842,0,0,0,12.7,1.99,40.841,40.841,0,0,0,12.7-1.99,34.826,34.826,0,0,0,11.068-5.908l36.59-29.591.053-.039a40.5,40.5,0,0,1,12.067-5.928,45.816,45.816,0,0,1,13.307-1.948,45.541,45.541,0,0,1,15.211,2.566,38.755,38.755,0,0,1,13.156,7.713,31.12,31.12,0,0,1,7.281,9.577,26.667,26.667,0,0,1,2.685,10.868,26.361,26.361,0,0,1-1.989,10.815,30.213,30.213,0,0,1-6.543,9.767l-.1.1-.109.088-119.705,96.8c-6.144,5-9.527,11.587-9.526,18.55s3.386,13.552,9.531,18.55a34.816,34.816,0,0,0,11.059,5.9,40.832,40.832,0,0,0,12.7,1.99,40.834,40.834,0,0,0,12.7-1.99A34.813,34.813,0,0,0,2396.94-333l412.369-333.462c6.14-5,9.521-11.584,9.52-18.546s-3.382-13.544-9.52-18.541h0a34.816,34.816,0,0,0-11.07-5.911,40.835,40.835,0,0,0-12.7-1.99,40.832,40.832,0,0,0-12.7,1.99,34.81,34.81,0,0,0-11.064,5.907h0l-119.815,96.885-.112.073a41.4,41.4,0,0,1-11.386,5.069,45.918,45.918,0,0,1-12.3,1.658,46,46,0,0,1-16.2-2.926,40.368,40.368,0,0,1-7.288-3.638,36.053,36.053,0,0,1-6.323-5.083,30.206,30.206,0,0,1-6.545-9.767,26.36,26.36,0,0,1-1.989-10.815,26.667,26.667,0,0,1,2.685-10.869,31.124,31.124,0,0,1,7.284-9.577l.05-.045.052-.042,868.147-702.042ZM2699.2-973.9a45.826,45.826,0,0,1,14.254,2.237A39.8,39.8,0,0,1,2726.1-964.9l.011.009a31.72,31.72,0,0,1,8.5,10.413,26.686,26.686,0,0,1,2.878,12.016,26.685,26.685,0,0,1-2.875,12.015,31.718,31.718,0,0,1-8.5,10.414l-.006,0L2597.8-816.262a39.8,39.8,0,0,1-12.651,6.766,45.833,45.833,0,0,1-14.253,2.236,45.832,45.832,0,0,1-14.256-2.237,39.8,39.8,0,0,1-12.653-6.768l-.012-.009a31.724,31.724,0,0,1-8.5-10.414A26.689,26.689,0,0,1,2532.6-838.7a26.689,26.689,0,0,1,2.875-12.015,31.724,31.724,0,0,1,8.5-10.414l.006,0L2672.295-964.9a39.8,39.8,0,0,1,12.651-6.767A45.827,45.827,0,0,1,2699.2-973.9Zm23.771,12.9a34.818,34.818,0,0,0-11.07-5.911,40.835,40.835,0,0,0-12.7-1.99,40.835,40.835,0,0,0-12.7,1.99,34.818,34.818,0,0,0-11.065,5.907h0l-128.3,103.753c-6.143,5-9.526,11.587-9.526,18.55s3.383,13.551,9.527,18.55a34.832,34.832,0,0,0,11.061,5.9,40.84,40.84,0,0,0,12.7,1.99,40.843,40.843,0,0,0,12.7-1.989,34.829,34.829,0,0,0,11.065-5.906h0l128.311-103.759c6.14-5,9.521-11.584,9.52-18.546S2729.109-956,2722.971-961Z" transform="translate(-1137.089 1402.162)" fill="#fff"/>
            <path id="Shape_14_copy" data-name="Shape 14 copy" d="M1822.932-1324.709,1572.5-1122.193c-14.021,11.265-36.659,11.261-50.675-.007-12.839-10.452-13.984-27.016-2.667-38.56l119.711-96.806c13.934-11.337,13.932-29.645-.006-40.979h0c-14.017-11.272-36.66-11.272-50.676,0L1175.816-965.08c-13.935,11.336-13.935,29.643,0,40.979h0c14.018,11.268,36.657,11.268,50.675,0l119.716-96.8c14.276-9.152,34.76-8.224,47.683,2.16,13.935,11.333,13.939,29.639.009,40.977L742.391-450.915c-13.935,11.336-13.935,29.643,0,40.979h0c14.018,11.268,36.657,11.268,50.675,0l36.544-29.552c14.192-10.226,35.775-9.749,49.257,1.087,12.841,10.451,13.988,27.016,2.669,38.56l-119.7,96.807c-13.935,11.336-13.935,29.643,0,40.979h0c14.018,11.268,36.658,11.268,50.675,0l412.371-333.462c13.935-11.336,13.935-29.644,0-40.979h0c-14.018-11.268-36.658-11.268-50.675,0l-119.714,96.8c-15.47,9.98-38.015,7.928-50.356-4.581-10.91-11.06-10.349-26.874,1.328-37.409l868.151-702.042c13.934-11.339,13.932-29.648-.006-40.984h0C1859.589-1335.979,1836.949-1335.979,1822.932-1324.709Zm-812.7,575.5,128.31-103.759c13.935-11.336,13.935-29.644,0-40.979h0c-14.018-11.268-36.658-11.268-50.675,0L959.551-790.192c-13.935,11.336-13.935,29.643,0,40.979h0C973.569-737.941,996.212-737.94,1010.231-749.21Z" transform="translate(-466.478 1365.366)" fill="#800020"/>
            <path id="Shape_14_copy_-_Outline" data-name="Shape 14 copy - Outline" d="M1848.269-1335.662a45.825,45.825,0,0,1,14.254,2.237,39.792,39.792,0,0,1,12.651,6.767l.011.009a31.723,31.723,0,0,1,8.5,10.414,26.687,26.687,0,0,1,2.878,12.016,26.686,26.686,0,0,1-2.875,12.017,31.726,31.726,0,0,1-8.5,10.416l-.006,0-868.1,702a26.126,26.126,0,0,0-6.075,7.99,21.7,21.7,0,0,0-2.19,8.84,21.39,21.39,0,0,0,1.618,8.774,25.233,25.233,0,0,0,5.474,8.149,32.845,32.845,0,0,0,11.832,7.563,40.947,40.947,0,0,0,14.422,2.6,40.922,40.922,0,0,0,10.955-1.475,36.436,36.436,0,0,0,9.9-4.381l119.613-96.719a39.8,39.8,0,0,1,12.651-6.767,45.829,45.829,0,0,1,14.253-2.236,45.829,45.829,0,0,1,14.253,2.236,39.8,39.8,0,0,1,12.651,6.766l.011.009a31.718,31.718,0,0,1,8.5,10.413A26.683,26.683,0,0,1,1237.83-616a26.682,26.682,0,0,1-2.876,12.016,31.719,31.719,0,0,1-8.5,10.414l-.006,0L814.074-260.1a39.793,39.793,0,0,1-12.651,6.766A45.827,45.827,0,0,1,787.17-251.1a45.82,45.82,0,0,1-14.253-2.236,39.794,39.794,0,0,1-12.651-6.766l-.011-.009a31.719,31.719,0,0,1-8.5-10.414,26.685,26.685,0,0,1-2.876-12.016,26.684,26.684,0,0,1,2.876-12.015,31.714,31.714,0,0,1,8.5-10.413l.006,0,119.59-96.715a25.148,25.148,0,0,0,5.464-8.337,21.381,21.381,0,0,0,1.47-9.054c-.366-6.52-3.737-12.691-9.491-17.376a34.834,34.834,0,0,0-11.053-5.9,40.847,40.847,0,0,0-12.721-1.995,38.606,38.606,0,0,0-22.39,6.853l-36.5,29.513a39.8,39.8,0,0,1-12.651,6.766,45.833,45.833,0,0,1-14.253,2.236,45.833,45.833,0,0,1-14.253-2.236,39.8,39.8,0,0,1-12.651-6.767l-.011-.009a31.721,31.721,0,0,1-8.5-10.414,26.683,26.683,0,0,1-2.876-12.016,26.682,26.682,0,0,1,2.876-12.015,31.719,31.719,0,0,1,8.5-10.413l.006,0,651.507-526.85c6.137-5,9.518-11.584,9.517-18.544s-3.382-13.544-9.521-18.541a34.836,34.836,0,0,0-11.047-5.9,40.875,40.875,0,0,0-12.739-2,41.153,41.153,0,0,0-10.981,1.475,36.606,36.606,0,0,0-9.885,4.349l-119.613,96.718a39.8,39.8,0,0,1-12.651,6.766,45.827,45.827,0,0,1-14.253,2.236,45.827,45.827,0,0,1-14.253-2.236,39.792,39.792,0,0,1-12.651-6.766l-.011-.009a31.72,31.72,0,0,1-8.5-10.414,26.684,26.684,0,0,1-2.876-12.016,26.684,26.684,0,0,1,2.876-12.015,31.715,31.715,0,0,1,8.5-10.413l.006,0,412.375-333.469a39.788,39.788,0,0,1,12.65-6.769,45.819,45.819,0,0,1,14.254-2.237,45.822,45.822,0,0,1,14.254,2.237,39.79,39.79,0,0,1,12.651,6.769l.011.009a31.721,31.721,0,0,1,8.5,10.413,26.68,26.68,0,0,1,2.878,12.016,26.68,26.68,0,0,1-2.875,12.015,31.72,31.72,0,0,1-8.5,10.414l-.006,0-119.6,96.714a25.152,25.152,0,0,0-5.464,8.336,21.388,21.388,0,0,0-1.471,9.054c.365,6.517,3.732,12.685,9.482,17.37h0a34.821,34.821,0,0,0,11.072,5.912,40.84,40.84,0,0,0,12.7,1.99,40.84,40.84,0,0,0,12.7-1.988,34.833,34.833,0,0,0,11.063-5.9h0l250.439-202.521a39.793,39.793,0,0,1,12.65-6.767A45.825,45.825,0,0,1,1848.269-1335.662Zm23.771,12.9a34.817,34.817,0,0,0-11.07-5.911,40.835,40.835,0,0,0-12.7-1.99,40.834,40.834,0,0,0-12.7,1.99,34.815,34.815,0,0,0-11.065,5.907h0l-250.44,202.521a39.8,39.8,0,0,1-12.649,6.763,45.839,45.839,0,0,1-14.25,2.235,45.831,45.831,0,0,1-14.256-2.237,39.8,39.8,0,0,1-12.653-6.768l-.012-.01c-6.86-5.585-10.884-13.035-11.329-20.977-.432-7.714,2.57-15.269,8.456-21.272l.1-.1.112-.091,119.71-96.806c6.141-5,9.522-11.584,9.521-18.546s-3.383-13.547-9.525-18.544a34.811,34.811,0,0,0-11.067-5.91,40.825,40.825,0,0,0-12.7-1.99,40.825,40.825,0,0,0-12.7,1.99,34.808,34.808,0,0,0-11.064,5.908h0l-412.37,333.465h0c-6.141,5-9.523,11.584-9.523,18.546s3.384,13.552,9.529,18.551a34.829,34.829,0,0,0,11.059,5.9,40.84,40.84,0,0,0,12.7,1.989,40.841,40.841,0,0,0,12.7-1.989,34.822,34.822,0,0,0,11.071-5.911l119.817-96.883.116-.074a41.561,41.561,0,0,1,11.363-5.031,46.154,46.154,0,0,1,12.315-1.656,45.859,45.859,0,0,1,14.294,2.249,39.823,39.823,0,0,1,12.625,6.754l.011.009a31.719,31.719,0,0,1,8.5,10.412,26.685,26.685,0,0,1,2.878,12.015,26.684,26.684,0,0,1-2.873,12.014,31.717,31.717,0,0,1-8.493,10.414l-.006.005L743.963-448.971c-6.141,5-9.523,11.584-9.523,18.545s3.381,13.547,9.522,18.545a34.82,34.82,0,0,0,11.066,5.907,40.838,40.838,0,0,0,12.7,1.989,40.839,40.839,0,0,0,12.7-1.989,34.821,34.821,0,0,0,11.065-5.906l36.6-29.6.056-.041a43.621,43.621,0,0,1,25.37-7.837,45.839,45.839,0,0,1,14.275,2.243,39.806,39.806,0,0,1,12.639,6.762l.012.01c6.861,5.584,10.886,13.034,11.332,20.977.433,7.715-2.57,15.269-8.455,21.272l-.1.1-.112.091L763.4-301.088c-6.141,5-9.523,11.584-9.523,18.546s3.384,13.552,9.529,18.551a34.829,34.829,0,0,0,11.059,5.9,40.838,40.838,0,0,0,12.7,1.989,40.839,40.839,0,0,0,12.7-1.989A34.828,34.828,0,0,0,810.936-264h0l412.371-333.462c6.141-5,9.523-11.584,9.523-18.546s-3.381-13.546-9.522-18.544a34.819,34.819,0,0,0-11.066-5.907,40.836,40.836,0,0,0-12.7-1.989,40.836,40.836,0,0,0-12.7,1.989,34.819,34.819,0,0,0-11.065,5.906h0l-119.818,96.885-.112.073a41.4,41.4,0,0,1-11.384,5.067,45.923,45.923,0,0,1-12.293,1.657,46,46,0,0,1-16.2-2.927,40.386,40.386,0,0,1-7.289-3.64,36.058,36.058,0,0,1-6.323-5.084,30.2,30.2,0,0,1-6.542-9.766,26.361,26.361,0,0,1-1.989-10.814,26.671,26.671,0,0,1,2.684-10.866,31.118,31.118,0,0,1,7.28-9.576l.05-.045.053-.043,868.151-702.042c6.139-5,9.522-11.585,9.521-18.549s-3.382-13.545-9.521-18.543ZM1113.2-904.9a45.827,45.827,0,0,1,14.253,2.236,39.8,39.8,0,0,1,12.651,6.766l.011.009a31.72,31.72,0,0,1,8.5,10.413,26.682,26.682,0,0,1,2.876,12.015,26.683,26.683,0,0,1-2.876,12.015,31.717,31.717,0,0,1-8.5,10.414l-.006,0L1011.8-747.262a39.8,39.8,0,0,1-12.651,6.767,45.829,45.829,0,0,1-14.254,2.236,45.831,45.831,0,0,1-14.256-2.237,39.8,39.8,0,0,1-12.652-6.769l-.011-.009a31.72,31.72,0,0,1-8.5-10.414A26.682,26.682,0,0,1,946.6-769.7a26.684,26.684,0,0,1,2.876-12.015,31.716,31.716,0,0,1,8.5-10.413l.006,0L1086.3-895.9a39.792,39.792,0,0,1,12.651-6.766A45.825,45.825,0,0,1,1113.2-904.9Zm23.77,12.9a34.826,34.826,0,0,0-11.068-5.909,40.841,40.841,0,0,0-12.7-1.989,40.839,40.839,0,0,0-12.7,1.989A34.825,34.825,0,0,0,1089.437-892h0L961.123-788.248c-6.141,5-9.523,11.584-9.523,18.545s3.382,13.549,9.524,18.547a34.818,34.818,0,0,0,11.065,5.907,40.837,40.837,0,0,0,12.7,1.99,40.836,40.836,0,0,0,12.7-1.989,34.825,34.825,0,0,0,11.065-5.906h0l128.31-103.759c6.141-5,9.523-11.584,9.523-18.546S1143.111-887,1136.972-892Z" transform="translate(-466.478 1365.366)" fill="#fff"/>
            <path id="Shape_16_copy" data-name="Shape 16 copy" d="M2434.07,363.82,2371.3,414.577c-13.937,11.319-13.952,29.616-.034,40.951h0c14.017,11.254,36.642,11.242,50.641-.027l62.767-50.757c13.934-11.321,13.949-29.615.034-40.951h0C2470.694,352.538,2448.068,352.55,2434.07,363.82Zm60.06-48.569h0c-13.934,11.32-13.949,29.615-.034,40.951h0c14.016,11.254,36.642,11.243,50.641-.026h0c13.936-11.32,13.952-29.616.035-40.951h0c-14.017-11.255-36.642-11.244-50.641.025Z" transform="translate(-1155.228 490.838)" fill="#800020"/>
            <g id="Group" opacity="0.6" style="mix-blend-mode: overlay;isolation: isolate">
              <path id="Shape_15_copy" data-name="Shape 15 copy" d="M1057.544,506.515l-496,401.094c-13.937,11.327-13.947,29.629-.021,40.965h0c14.019,11.262,36.654,11.253,50.66-.019l285.039-230.5c14.264-9.156,34.743-8.236,47.665,2.141h0c13.926,11.337,13.917,29.64-.021,40.967L482.478,1135.087c-13.937,11.327-13.947,29.629-.021,40.965h0c14.019,11.261,36.651,11.255,50.66-.014l150.06-121.351c14.008-11.268,36.64-11.275,50.659-.014,13.924,11.336,13.917,29.637-.017,40.965L700.343,1122.7c-13.937,11.329-13.947,29.632-.021,40.97h0c14.019,11.262,36.654,11.253,50.66-.019l538.746-435.663c13.938-11.328,13.947-29.631.021-40.967h0c-14.019-11.261-36.653-11.254-50.661.017L934.617,933.261c-13.972,11.319-36.645,11.336-50.642.038s-14.019-29.633-.047-40.952l.052-.042,244.7-197.882c13.937-11.328,13.946-29.631.021-40.968h0c-14.019-11.261-36.653-11.253-50.66.017l-47.659,38.54c-14.008,11.271-36.642,11.278-50.661.017h0c-12.832-10.451-13.969-27.011-2.647-38.546l131.1-106.019c13.937-11.328,13.946-29.631.021-40.968h0C1094.183,495.238,1071.551,495.246,1057.544,506.515Z" transform="translate(-356.575 388.842)" fill="#800020"/>
              <path id="Shape_15_copy_-_Outline" data-name="Shape 15 copy - Outline" d="M1082.883,495.058h0a43.42,43.42,0,0,1,27.2,9.1c7.463,6.076,11.563,14.177,11.559,22.825s-4.111,16.75-11.567,22.81L978.964,655.817a22.492,22.492,0,0,0-6.644,16.874c.355,6.376,3.657,12.418,9.3,17.013a39.205,39.205,0,0,0,46.886-.029l47.653-38.535a45.184,45.184,0,0,1,54.426-.023c7.463,6.076,11.563,14.177,11.559,22.825s-4.111,16.75-11.566,22.809L885.866,894.638c-6.088,4.932-9.409,11.375-9.4,18.184s3.343,13.257,9.4,18.143a39.048,39.048,0,0,0,46.869-.035L1237.2,684.71a45.184,45.184,0,0,1,54.426-.023c7.463,6.075,11.563,14.177,11.56,22.824s-4.111,16.75-11.567,22.81L752.869,1165.988a45.183,45.183,0,0,1-54.425.025c-7.463-6.076-11.563-14.178-11.56-22.826s4.111-16.751,11.567-22.811l33.482-27.071c6.02-4.894,9.34-11.342,9.342-18.15s-3.312-13.255-9.332-18.156a39.2,39.2,0,0,0-46.884.025L535,1178.371a45.188,45.188,0,0,1-54.426.02c-7.463-6.075-11.563-14.177-11.56-22.824s4.111-16.75,11.567-22.809l462.4-373.926c6.022-4.894,9.343-11.342,9.345-18.151s-3.312-13.255-9.332-18.157a37.421,37.421,0,0,0-23.437-7.766,38.73,38.73,0,0,0-20.714,5.824L614.074,950.889a45.182,45.182,0,0,1-54.426.025c-7.463-6.075-11.563-14.177-11.56-22.824s4.111-16.749,11.567-22.809l496-401.1A43.41,43.41,0,0,1,1082.883,495.058ZM1005.045,703.47a43.417,43.417,0,0,1-27.2-9.1c-6.982-5.687-11.067-13.262-11.517-21.344-.437-7.855,2.62-15.542,8.607-21.642L1106.3,545.133c6.021-4.894,9.342-11.342,9.345-18.151s-3.312-13.256-9.332-18.157a39.2,39.2,0,0,0-46.884.029L563.434,909.942c-6.022,4.894-9.343,11.341-9.345,18.15s3.311,13.255,9.332,18.156a39.2,39.2,0,0,0,46.886-.029L895.34,715.724a44.86,44.86,0,0,1,24.22-6.966,43.441,43.441,0,0,1,27.21,9.1c7.464,6.076,11.563,14.177,11.56,22.825s-4.111,16.75-11.567,22.81l-462.4,373.926c-6.022,4.894-9.343,11.341-9.345,18.15s3.312,13.255,9.332,18.156a39.207,39.207,0,0,0,46.886-.025l150.054-121.346a45.186,45.186,0,0,1,54.424-.02c7.463,6.075,11.562,14.177,11.559,22.823s-4.109,16.749-11.563,22.808l-33.482,27.071c-6.021,4.894-9.343,11.343-9.345,18.152s3.312,13.257,9.333,18.158a39.2,39.2,0,0,0,46.885-.029L1287.843,725.66c6.022-4.894,9.343-11.342,9.345-18.151s-3.312-13.255-9.332-18.157a39.2,39.2,0,0,0-46.886.028L936.5,935.594a45.031,45.031,0,0,1-54.413.04c-7.491-6.046-11.62-14.145-11.628-22.806s4.1-16.758,11.576-22.812L1126.8,692.09c6.021-4.894,9.342-11.342,9.345-18.151s-3.311-13.256-9.332-18.157a39.2,39.2,0,0,0-46.885.028l-47.654,38.535A43.41,43.41,0,0,1,1005.045,703.47Z" transform="translate(-356.575 388.842)" fill="#707070"/>
            </g>
          </g>
        </g>
      </g>
    </g>
  </g>
</svg>
