<svg xmlns="http://www.w3.org/2000/svg" width="57.892" height="57.892" viewBox="0 0 57.892 57.892">
  <g id="request" transform="translate(0 0)">
    <path id="Path_8640" data-name="Path 8640" d="M221.747,0h-21.8A7.142,7.142,0,0,0,192.8,7.146v32.7a1.7,1.7,0,0,0,2.714,1.357l6.814-5.111h19.418a7.142,7.142,0,0,0,7.146-7.146V7.146A7.142,7.142,0,0,0,221.747,0Zm-10.9,27.917a1.7,1.7,0,1,1,1.7-1.7A1.7,1.7,0,0,1,210.847,27.916Zm1.7-7.5v.355a1.7,1.7,0,1,1-3.392,0V18.954a1.7,1.7,0,0,1,1.7-1.7A2.846,2.846,0,1,0,208,14.41a1.7,1.7,0,1,1-3.392,0v0a6.238,6.238,0,1,1,7.933,6.006Zm0,0" transform="translate(-171.001 0)" fill="#800020"/>
    <path id="Path_8641" data-name="Path 8641" d="M40.46,249.006a8.017,8.017,0,1,1-8.017-8.018A8.017,8.017,0,0,1,40.46,249.006Zm0,0" transform="translate(-21.664 -213.74)" fill="#fb5012"/>
    <path id="Path_8642" data-name="Path 8642" d="M10.779,382.8A10.78,10.78,0,0,0,0,393.584v2.133a1.7,1.7,0,0,0,1.7,1.7H19.863a1.7,1.7,0,0,0,1.7-1.7v-2.133A10.78,10.78,0,0,0,10.779,382.8Zm0,0" transform="translate(0 -339.521)" fill="#fb5012"/>
  </g>
</svg>
